<?xml version="1.0" encoding="iso-8859-1"?>
<!-- Uploaded to: SVG Repo, www.svgrepo.com, Generator: SVG Repo Mixer Tools -->
<svg version="1.1" id="Layer_1" xmlns="http://www.w3.org/2000/svg" xmlns:xlink="http://www.w3.org/1999/xlink" 
	 viewBox="0 0 512 512" xml:space="preserve">
<polygon style="fill:#F9D85C;" points="464.98,443.762 47.02,443.762 256,98.946 "/>
<polygon style="fill:#DDB92E;" points="256,98.946 245.551,116.187 444.082,443.762 464.98,443.762 "/>
<polygon style="fill:#FFFFFF;" points="256,98.946 47.02,443.762 67.918,443.762 266.449,116.187 "/>
<polyline style="fill:#CC8525;" points="172.408,443.762 256,305.836 339.592,305.836 339.592,443.762 "/>
<polygon style="fill:#FFFFFF;" points="339.592,443.762 172.408,443.762 256,305.836 "/>
<rect x="281.078" y="224.852" width="15.673" height="15.673"/>
<path d="M469.394,435.926l-204.23-336.98L283.6,68.527l-13.404-8.124L256,83.825l-14.196-23.423L228.4,68.526l18.436,30.419
	L42.607,435.925H0v15.673h512v-15.673h-42.606V435.926z M297.181,182.015H214.82L256,114.067L297.181,182.015z M179.356,240.53
	h86.048v-15.673h-76.549l16.465-27.167h101.36l144.386,238.237H347.429V297.999h-95.843l-83.592,137.927H60.934L179.356,240.53z
	 M331.755,415.711l-61.841-102.038h61.841V415.711z M256,320.957l69.678,114.969H186.322L256,320.957z"/>
</svg>